dataset
version=1
nRows=28
nColumns=39
inDegrees=no
endheader
time	sternoclavicular_r2	sternoclavicular_r3	unrotscap_r3	unrotscap_r2	acromioclavicular_r2	acromioclavicular_r3	acromioclavicular_r1	unrothum_r1	unrothum_r3	unrothum_r2	elv_angle	shoulder_elv	shoulder1_r2	shoulder_rot	elbow_flexion	pro_sup	deviation	flexion	cmc_abduction	cmc_flexion	mp_flexion	ip_flexion	mcp2_flexion	mcp2_abduction	pm2_flexion	md2_flexion	mcp3_flexion	mcp3_abduction	pm3_flexion	md3_flexion	mcp4_flexion	mcp4_abduction	pm4_flexion	md4_flexion	mcp5_flexion	mcp5_abduction	pm5_flexion	md5_flexion
2.655000	-0.053079	-0.512427	0.322708	0.168704	0.129063	0.199395	-0.252758	0.093286	-0.102931	0.150199	0.116521	0.027437	0.146525	0.146525	0.835814	1.428210	0.000000	0.000000	0.000000	0.000000	0.000000	0.000000	0.000000	0.000000	0.000000	0.000000	0.000000	0.000000	0.000000	0.000000	0.000000	0.000000	0.000000	0.000000	0.000000	0.000000	0.000000	0.000000
2.660000	-0.053092	-0.512518	0.322784	0.168702	0.129053	0.199426	-0.252829	0.093374	-0.103020	0.150174	0.116489	0.027437	0.146525	0.146525	0.836241	1.430413	0.000000	0.000000	0.000000	0.000000	0.000000	0.000000	0.000000	0.000000	0.000000	0.000000	0.000000	0.000000	0.000000	0.000000	0.000000	0.000000	0.000000	0.000000	0.000000	0.000000	0.000000	0.000000
2.665000	-0.053104	-0.512609	0.322860	0.168696	0.129041	0.199454	-0.252899	0.093459	-0.103112	0.150147	0.116455	0.027437	0.146525	0.146525	0.836677	1.432653	0.000000	0.000000	0.000000	0.000000	0.000000	0.000000	0.000000	0.000000	0.000000	0.000000	0.000000	0.000000	0.000000	0.000000	0.000000	0.000000	0.000000	0.000000	0.000000	0.000000	0.000000	0.000000
2.670000	-0.053116	-0.512699	0.322934	0.168688	0.129027	0.199480	-0.252969	0.093543	-0.103206	0.150119	0.116419	0.027437	0.146525	0.146525	0.837121	1.434929	0.000000	0.000000	0.000000	0.000000	0.000000	0.000000	0.000000	0.000000	0.000000	0.000000	0.000000	0.000000	0.000000	0.000000	0.000000	0.000000	0.000000	0.000000	0.000000	0.000000	0.000000	0.000000
2.675000	-0.053128	-0.512788	0.323007	0.168677	0.129010	0.199503	-0.253040	0.093624	-0.103302	0.150088	0.116379	0.027437	0.146525	0.146525	0.837573	1.437243	0.000000	0.000000	0.000000	0.000000	0.000000	0.000000	0.000000	0.000000	0.000000	0.000000	0.000000	0.000000	0.000000	0.000000	0.000000	0.000000	0.000000	0.000000	0.000000	0.000000	0.000000	0.000000
2.680000	-0.053140	-0.512878	0.323079	0.168663	0.128991	0.199524	-0.253111	0.093704	-0.103401	0.150055	0.116336	0.027437	0.146525	0.146525	0.838033	1.439596	0.000000	0.000000	0.000000	0.000000	0.000000	0.000000	0.000000	0.000000	0.000000	0.000000	0.000000	0.000000	0.000000	0.000000	0.000000	0.000000	0.000000	0.000000	0.000000	0.000000	0.000000	0.000000
2.685000	-0.053152	-0.512966	0.323151	0.168646	0.128970	0.199542	-0.253183	0.093781	-0.103503	0.150020	0.116290	0.027437	0.146525	0.146525	0.838502	1.441987	0.000000	0.000000	0.000000	0.000000	0.000000	0.000000	0.000000	0.000000	0.000000	0.000000	0.000000	0.000000	0.000000	0.000000	0.000000	0.000000	0.000000	0.000000	0.000000	0.000000	0.000000	0.000000
2.690000	-0.053164	-0.513055	0.323222	0.168626	0.128945	0.199557	-0.253256	0.093856	-0.103609	0.149983	0.116240	0.027437	0.146525	0.146525	0.838979	1.444419	0.000000	0.000000	0.000000	0.000000	0.000000	0.000000	0.000000	0.000000	0.000000	0.000000	0.000000	0.000000	0.000000	0.000000	0.000000	0.000000	0.000000	0.000000	0.000000	0.000000	0.000000	0.000000
2.695000	-0.053176	-0.513142	0.323293	0.168602	0.128918	0.199570	-0.253331	0.093929	-0.103717	0.149944	0.116187	0.027437	0.146525	0.146525	0.839465	1.446890	0.000000	0.000000	0.000000	0.000000	0.000000	0.000000	0.000000	0.000000	0.000000	0.000000	0.000000	0.000000	0.000000	0.000000	0.000000	0.000000	0.000000	0.000000	0.000000	0.000000	0.000000	0.000000
2.700000	-0.053188	-0.513230	0.323365	0.168576	0.128889	0.199580	-0.253407	0.094000	-0.103829	0.149903	0.116131	0.027437	0.146525	0.146525	0.839960	1.449403	0.000000	0.000000	0.000000	0.000000	0.000000	0.000000	0.000000	0.000000	0.000000	0.000000	0.000000	0.000000	0.000000	0.000000	0.000000	0.000000	0.000000	0.000000	0.000000	0.000000	0.000000	0.000000
2.705000	-0.053200	-0.513317	0.323436	0.168546	0.128856	0.199587	-0.253486	0.094068	-0.103945	0.149860	0.116071	0.027437	0.146525	0.146525	0.840463	1.451957	0.000000	0.000000	0.000000	0.000000	0.000000	0.000000	0.000000	0.000000	0.000000	0.000000	0.000000	0.000000	0.000000	0.000000	0.000000	0.000000	0.000000	0.000000	0.000000	0.000000	0.000000	0.000000
2.710000	-0.053213	-0.513403	0.323508	0.168514	0.128821	0.199592	-0.253566	0.094135	-0.104065	0.149814	0.116008	0.027437	0.146525	0.146525	0.840975	1.454553	0.000000	0.000000	0.000000	0.000000	0.000000	0.000000	0.000000	0.000000	0.000000	0.000000	0.000000	0.000000	0.000000	0.000000	0.000000	0.000000	0.000000	0.000000	0.000000	0.000000	0.000000	0.000000
2.715000	-0.053225	-0.513489	0.323580	0.168477	0.128783	0.199594	-0.253648	0.094199	-0.104189	0.149766	0.115940	0.027437	0.146525	0.146525	0.841496	1.457192	0.000000	0.000000	0.000000	0.000000	0.000000	0.000000	0.000000	0.000000	0.000000	0.000000	0.000000	0.000000	0.000000	0.000000	0.000000	0.000000	0.000000	0.000000	0.000000	0.000000	0.000000	0.000000
2.720000	-0.053238	-0.513575	0.323653	0.168438	0.128742	0.199593	-0.253732	0.094260	-0.104318	0.149715	0.115869	0.027437	0.146525	0.146525	0.842026	1.459875	0.000000	0.000000	0.000000	0.000000	0.000000	0.000000	0.000000	0.000000	0.000000	0.000000	0.000000	0.000000	0.000000	0.000000	0.000000	0.000000	0.000000	0.000000	0.000000	0.000000	0.000000	0.000000
2.725000	-0.053251	-0.513660	0.323726	0.168395	0.128699	0.199589	-0.253820	0.094320	-0.104450	0.149663	0.115794	0.027437	0.146525	0.146525	0.842566	1.462603	0.000000	0.000000	0.000000	0.000000	0.000000	0.000000	0.000000	0.000000	0.000000	0.000000	0.000000	0.000000	0.000000	0.000000	0.000000	0.000000	0.000000	0.000000	0.000000	0.000000	0.000000	0.000000
2.730000	-0.053264	-0.513745	0.323801	0.168349	0.128652	0.199582	-0.253910	0.094377	-0.104588	0.149607	0.115715	0.027437	0.146525	0.146525	0.843114	1.465375	0.000000	0.000000	0.000000	0.000000	0.000000	0.000000	0.000000	0.000000	0.000000	0.000000	0.000000	0.000000	0.000000	0.000000	0.000000	0.000000	0.000000	0.000000	0.000000	0.000000	0.000000	0.000000
2.735000	-0.053277	-0.513829	0.323876	0.168299	0.128602	0.199572	-0.254002	0.094432	-0.104730	0.149550	0.115632	0.027437	0.146525	0.146525	0.843671	1.468193	0.000000	0.000000	0.000000	0.000000	0.000000	0.000000	0.000000	0.000000	0.000000	0.000000	0.000000	0.000000	0.000000	0.000000	0.000000	0.000000	0.000000	0.000000	0.000000	0.000000	0.000000	0.000000
2.740000	-0.053290	-0.513912	0.323953	0.168246	0.128550	0.199559	-0.254098	0.094484	-0.104876	0.149489	0.115544	0.027437	0.146525	0.146525	0.844238	1.471058	0.000000	0.000000	0.000000	0.000000	0.000000	0.000000	0.000000	0.000000	0.000000	0.000000	0.000000	0.000000	0.000000	0.000000	0.000000	0.000000	0.000000	0.000000	0.000000	0.000000	0.000000	0.000000
2.745000	-0.053304	-0.513996	0.324031	0.168189	0.128494	0.199544	-0.254197	0.094535	-0.105028	0.149427	0.115453	0.027437	0.146525	0.146525	0.844814	1.473970	0.000000	0.000000	0.000000	0.000000	0.000000	0.000000	0.000000	0.000000	0.000000	0.000000	0.000000	0.000000	0.000000	0.000000	0.000000	0.000000	0.000000	0.000000	0.000000	0.000000	0.000000	0.000000
2.750000	-0.053318	-0.514078	0.324110	0.168128	0.128436	0.199525	-0.254299	0.094583	-0.105185	0.149361	0.115357	0.027437	0.146525	0.146525	0.845399	1.476929	0.000000	0.000000	0.000000	0.000000	0.000000	0.000000	0.000000	0.000000	0.000000	0.000000	0.000000	0.000000	0.000000	0.000000	0.000000	0.000000	0.000000	0.000000	0.000000	0.000000	0.000000	0.000000
2.755000	-0.053332	-0.514160	0.324190	0.168064	0.128374	0.199504	-0.254404	0.094628	-0.105347	0.149293	0.115256	0.027437	0.146525	0.146525	0.845993	1.479938	0.000000	0.000000	0.000000	0.000000	0.000000	0.000000	0.000000	0.000000	0.000000	0.000000	0.000000	0.000000	0.000000	0.000000	0.000000	0.000000	0.000000	0.000000	0.000000	0.000000	0.000000	0.000000
2.760000	-0.053346	-0.514242	0.324272	0.167997	0.128309	0.199479	-0.254512	0.094672	-0.105514	0.149223	0.115152	0.027437	0.146525	0.146525	0.846598	1.482996	0.000000	0.000000	0.000000	0.000000	0.000000	0.000000	0.000000	0.000000	0.000000	0.000000	0.000000	0.000000	0.000000	0.000000	0.000000	0.000000	0.000000	0.000000	0.000000	0.000000	0.000000	0.000000
2.765000	-0.053361	-0.514323	0.324355	0.167926	0.128241	0.199452	-0.254624	0.094713	-0.105686	0.149150	0.115043	0.027437	0.146525	0.146525	0.847211	1.486104	0.000000	0.000000	0.000000	0.000000	0.000000	0.000000	0.000000	0.000000	0.000000	0.000000	0.000000	0.000000	0.000000	0.000000	0.000000	0.000000	0.000000	0.000000	0.000000	0.000000	0.000000	0.000000
2.770000	-0.053376	-0.514404	0.324440	0.167851	0.128170	0.199421	-0.254740	0.094751	-0.105864	0.149074	0.114929	0.027437	0.146525	0.146525	0.847835	1.489262	0.000000	0.000000	0.000000	0.000000	0.000000	0.000000	0.000000	0.000000	0.000000	0.000000	0.000000	0.000000	0.000000	0.000000	0.000000	0.000000	0.000000	0.000000	0.000000	0.000000	0.000000	0.000000
2.775000	-0.053391	-0.514485	0.324527	0.167772	0.128095	0.199388	-0.254859	0.094788	-0.106047	0.148995	0.114811	0.027437	0.146525	0.146525	0.848468	1.492473	0.000000	0.000000	0.000000	0.000000	0.000000	0.000000	0.000000	0.000000	0.000000	0.000000	0.000000	0.000000	0.000000	0.000000	0.000000	0.000000	0.000000	0.000000	0.000000	0.000000	0.000000	0.000000
2.780000	-0.053407	-0.514565	0.324615	0.167690	0.128018	0.199352	-0.254981	0.094822	-0.106235	0.148914	0.114689	0.027437	0.146525	0.146525	0.849111	1.495736	0.000000	0.000000	0.000000	0.000000	0.000000	0.000000	0.000000	0.000000	0.000000	0.000000	0.000000	0.000000	0.000000	0.000000	0.000000	0.000000	0.000000	0.000000	0.000000	0.000000	0.000000	0.000000
2.785000	-0.053422	-0.514644	0.324705	0.167604	0.127937	0.199313	-0.255107	0.094854	-0.106429	0.148830	0.114562	0.027437	0.146525	0.146525	0.849764	1.499053	0.000000	0.000000	0.000000	0.000000	0.000000	0.000000	0.000000	0.000000	0.000000	0.000000	0.000000	0.000000	0.000000	0.000000	0.000000	0.000000	0.000000	0.000000	0.000000	0.000000	0.000000	0.000000
2.790000	-0.053438	-0.514723	0.324796	0.167514	0.127853	0.199270	-0.255237	0.094884	-0.106628	0.148743	0.114430	0.027437	0.146525	0.146525	0.850427	1.502423	0.000000	0.000000	0.000000	0.000000	0.000000	0.000000	0.000000	0.000000	0.000000	0.000000	0.000000	0.000000	0.000000	0.000000	0.000000	0.000000	0.000000	0.000000	0.000000	0.000000	0.000000	0.000000
